<svg xmlns="http://www.w3.org/2000/svg" viewBox="0 0 1000 700" role="img"><defs><linearGradient id="bg" x2="1" y2="1"><stop stop-color="#092244"/><stop offset=".47" stop-color="#472372"/><stop offset="1" stop-color="#f15a82"/></linearGradient><linearGradient id="stage" y2="1"><stop stop-color="#213867"/><stop offset="1" stop-color="#07101e"/></linearGradient><linearGradient id="pink" x2="1"><stop stop-color="#ff62cf"/><stop offset="1" stop-color="#a63d9d"/></linearGradient><linearGradient id="blue" x2="1"><stop stop-color="#60eaff"/><stop offset="1" stop-color="#3474e6"/></linearGradient><filter id="g"><feGaussianBlur stdDeviation="8" result="b"/><feMerge><feMergeNode in="b"/><feMergeNode in="SourceGraphic"/></feMerge></filter><filter id="s"><feDropShadow dy="14" stdDeviation="15" flood-opacity=".55"/></filter></defs><rect width="1000" height="700" fill="url(#bg)"/><circle cx="185" cy="132" r="70" fill="#ffe45d"/><circle cx="820" cy="112" r="45" fill="#62eaff" opacity=".55" filter="url(#g)"/><path d="M0 470h1000v230H0z" fill="url(#stage)"/><g opacity=".7" fill="#fff"><circle cx="90" cy="74" r="4"/><circle cx="291" cy="98" r="3"/><circle cx="430" cy="63" r="4"/><circle cx="608" cy="107" r="3"/><circle cx="921" cy="85" r="4"/></g><g transform="translate(75 222)" filter="url(#s)"><circle cx="95" cy="65" r="42" fill="#35201e"/><path d="M56 107c25-34 72-43 108-20 36 24 52 67 50 133H20c2-48 12-84 36-113z" fill="url(#blue)"/><path d="M56 134c-38 18-66 45-85 82" stroke="#3e81dc" stroke-width="27" stroke-linecap="round"/><path d="M159 132c35 12 64 34 85 66" stroke="#4385dd" stroke-width="27" stroke-linecap="round"/><g transform="translate(145 190)" filter="url(#g)"><path d="M0 10c4-15 17-23 31-18l19 4 19-4c14-5 27 3 31 18l5 21c3 12-11 19-20 11L68 30H32L15 42C6 50-8 43-5 31z" fill="#07101e" stroke="#5ceaff" stroke-width="4"/><path d="M18 14h15M25 7v15" stroke="#ff50c8" stroke-width="3"/><circle cx="74" cy="14" r="3" fill="#ffd95b"/></g></g><g transform="translate(330 170)" filter="url(#s)"><circle cx="101" cy="79" r="46" fill="#3b2329"/><path d="M59 123c27-37 77-47 115-22 39 25 57 73 55 146H22c2-54 12-94 37-124z" fill="url(#pink)"/><path d="M55 151c-39 19-69 48-88 87" stroke="#a34193" stroke-width="29" stroke-linecap="round"/><path d="M173 149c39 14 71 39 95 77" stroke="#ac439b" stroke-width="29" stroke-linecap="round"/><g transform="translate(78 245)" filter="url(#g)"><path d="M0 10c4-15 17-23 31-18l19 4 19-4c14-5 27 3 31 18l5 21c3 12-11 19-20 11L68 30H32L15 42C6 50-8 43-5 31z" fill="#101429" stroke="#ff58cf" stroke-width="4"/><path d="M18 14h15M25 7v15" stroke="#54eaff" stroke-width="3"/><circle cx="74" cy="14" r="3" fill="#ffe05f"/></g></g><g transform="translate(590 225)" filter="url(#s)"><circle cx="91" cy="63" r="41" fill="#2b1c1b"/><path d="M54 104c24-33 69-41 103-20 35 23 51 65 49 130H20c2-47 11-82 34-110z" fill="#f07b55"/><path d="M52 130c-33 15-60 39-78 72" stroke="#d46b4b" stroke-width="26" stroke-linecap="round"/><path d="M153 129c34 10 62 31 84 61" stroke="#db704e" stroke-width="26" stroke-linecap="round"/></g><g transform="translate(760 205)" filter="url(#s)"><circle cx="77" cy="55" r="36" fill="#251d2a"/><path d="M43 91c22-29 60-36 90-17 31 20 45 57 43 112H12c2-40 10-70 31-95z" fill="#815fd5"/><path d="M40 115c-29 13-51 34-66 63" stroke="#7354c6" stroke-width="22" stroke-linecap="round"/><path d="M131 113c29 10 54 28 72 54" stroke="#7d5bd1" stroke-width="22" stroke-linecap="round"/></g><g filter="url(#g)"><path d="M113 520c108-63 220-91 334-84 128 8 261 57 418 150" fill="none" stroke="#4beaff" stroke-width="6" opacity=".48"/><path d="M99 566c127-47 257-62 388-45 133 17 258 55 386 115" fill="none" stroke="#ff56c7" stroke-width="6" opacity=".38"/></g><g transform="translate(436 485)" filter="url(#s)"><rect width="180" height="97" rx="18" fill="#0a1530" stroke="#5ceaff" stroke-width="5"/><circle cx="51" cy="48" r="21" fill="#ff54c6"/><circle cx="128" cy="48" r="21" fill="#55eaff"/><path d="M43 48h16M51 40v16" stroke="#fff" stroke-width="4"/><circle cx="122" cy="43" r="4" fill="#ffe05d"/><circle cx="136" cy="55" r="4" fill="#fff"/></g><rect x="22" y="22" width="956" height="656" rx="30" fill="none" stroke="#fff" stroke-opacity=".18" stroke-width="4"/></svg>