<svg xmlns="http://www.w3.org/2000/svg" viewBox="0 0 1000 700"><defs><linearGradient id="b" x2="1" y2="1"><stop stop-color="#020814"/><stop offset=".54" stop-color="#132859"/><stop offset="1" stop-color="#58134e"/></linearGradient><radialGradient id="r"><stop stop-color="#ffba55" stop-opacity=".95"/><stop offset=".35" stop-color="#ff4dac" stop-opacity=".55"/><stop offset="1" stop-color="#ff4dac" stop-opacity="0"/></radialGradient><filter id="gl"><feGaussianBlur stdDeviation="22"/></filter></defs><rect width="1000" height="700" fill="url(#b)"/><circle cx="530" cy="315" r="260" fill="url(#r)" filter="url(#gl)"/><circle cx="530" cy="315" r="118" fill="#ffcf61"/><path d="M530 92 576 248l164-44-123 111 121 110-164-43-44 158-44-158-164 43 121-110-123-111 164 44z" fill="#fff0aa" opacity=".42"/><g transform="translate(250 345)"><path d="M0 86 153 5l162 81-42 70-120 40-121-40z" fill="#eaf6ff" stroke="#44eaff" stroke-width="8"/><path d="m153 5 30 191-60-22z" fill="#718ab6"/><path d="M315 86 451 29l-92 111z" fill="#ff4db8"/><path d="M18 90-102 29l76 111z" fill="#4deaff"/><circle cx="153" cy="90" r="25" fill="#091a32"/><circle cx="153" cy="90" r="9" fill="#ffde62"/></g><g fill="#fff" opacity=".8"><circle cx="103" cy="92" r="4"/><circle cx="226" cy="154" r="3"/><circle cx="356" cy="92" r="4"/><circle cx="792" cy="118" r="3"/><circle cx="901" cy="188" r="4"/></g><path d="M82 596c198-91 319-87 444-53 137 37 243 32 389-47" fill="none" stroke="#49eaff" stroke-width="6" opacity=".38"/><rect x="25" y="25" width="950" height="650" rx="28" fill="none" stroke="#5deeff" stroke-opacity=".3" stroke-width="4"/></svg>