<svg xmlns="http://www.w3.org/2000/svg" viewBox="0 0 1000 700"><defs><linearGradient id="b" x2="1" y2="1"><stop stop-color="#171039"/><stop offset=".46" stop-color="#522062"/><stop offset="1" stop-color="#05162b"/></linearGradient><linearGradient id="a" x2="1"><stop stop-color="#ff4dc2"/><stop offset="1" stop-color="#48ecff"/></linearGradient><filter id="gl"><feGaussianBlur stdDeviation="18"/></filter></defs><rect width="1000" height="700" fill="url(#b)"/><circle cx="190" cy="150" r="100" fill="#ff49c0" opacity=".22" filter="url(#gl)"/><circle cx="810" cy="190" r="120" fill="#42eaff" opacity=".22" filter="url(#gl)"/><path d="M90 560c55-152 181-224 315-157 42-92 147-123 238-71 120-43 226 41 267 228z" fill="#07172b" stroke="#7458ff" stroke-width="8"/><g transform="translate(255 225)"><path d="M55 86c26-54 84-76 139-54 42 17 68 58 68 104v122H0V136c0-18 18-35 55-50z" fill="#e745a3"/><circle cx="132" cy="55" r="49" fill="#1d1527"/><path d="M37 208-35 311M226 207l83 103" stroke="#9b2f80" stroke-width="33" stroke-linecap="round"/></g><g transform="translate(525 245)"><path d="M54 79c29-50 89-66 137-38 37 22 59 62 59 105v110H0V143c0-24 18-45 54-64z" fill="#1f82ba"/><circle cx="126" cy="48" r="47" fill="#15141f"/><path d="M33 204-37 298M217 203l75 94" stroke="#1c6296" stroke-width="32" stroke-linecap="round"/></g><path d="M430 475c5-31 29-47 59-38l40 12 40-12c30-9 54 7 59 38l12 43c5 25-22 39-42 21l-31-25h-76l-31 25c-20 18-47 4-42-21z" fill="#06101e" stroke="url(#a)" stroke-width="8"/><path d="M464 482h38M483 463v38" stroke="#50efff" stroke-width="8" stroke-linecap="round"/><circle cx="574" cy="480" r="7" fill="#ffe45d"/><circle cx="592" cy="498" r="7" fill="#ff50c4"/><g fill="#fff" opacity=".76"><circle cx="103" cy="101" r="4"/><circle cx="315" cy="116" r="3"/><circle cx="720" cy="92" r="4"/><circle cx="884" cy="123" r="3"/></g><rect x="25" y="25" width="950" height="650" rx="28" fill="none" stroke="#ff5bc7" stroke-opacity=".3" stroke-width="4"/></svg>