<svg xmlns="http://www.w3.org/2000/svg" viewBox="0 0 1000 620" role="img" aria-labelledby="t d"><title id="t">Premium RGB gaming room lighting</title><desc id="d">Original product-style artwork with modular wall panels, twin RGB light towers and desk ambience.</desc><defs><linearGradient id="bg" x2="1" y2="1"><stop stop-color="#081227"/><stop offset=".5" stop-color="#16143f"/><stop offset="1" stop-color="#32103d"/></linearGradient><linearGradient id="tower" x2="1" y2="1"><stop stop-color="#1e2e49"/><stop offset=".52" stop-color="#070d18"/><stop offset="1" stop-color="#161026"/></linearGradient><radialGradient id="cyan"><stop stop-color="#33ecff" stop-opacity=".65"/><stop offset="1" stop-color="#33ecff" stop-opacity="0"/></radialGradient><radialGradient id="pink"><stop stop-color="#ff49c4" stop-opacity=".63"/><stop offset="1" stop-color="#ff49c4" stop-opacity="0"/></radialGradient><filter id="g"><feGaussianBlur stdDeviation="8" result="b"/><feMerge><feMergeNode in="b"/><feMergeNode in="SourceGraphic"/></feMerge></filter><filter id="s"><feDropShadow dy="18" stdDeviation="19" flood-opacity=".54"/></filter></defs><rect width="1000" height="620" rx="34" fill="url(#bg)"/><ellipse cx="245" cy="290" rx="300" ry="250" fill="url(#cyan)"/><ellipse cx="790" cy="280" rx="280" ry="240" fill="url(#pink)"/><g filter="url(#s)" stroke-linejoin="round"><path d="M205 122l82-47 82 47v94l-82 47-82-47z" fill="#0b2141" stroke="#42eaff" stroke-width="9"/><path d="M371 122l82-47 82 47v94l-82 47-82-47z" fill="#261344" stroke="#ff4bc6" stroke-width="9"/><path d="M537 122l82-47 82 47v94l-82 47-82-47z" fill="#17194a" stroke="#8062ff" stroke-width="9"/><path d="M288 265l82-47 82 47v94l-82 47-82-47z" fill="#102143" stroke="#4ce7ff" stroke-width="9"/><path d="M454 265l82-47 82 47v94l-82 47-82-47z" fill="#251342" stroke="#ff51bf" stroke-width="9"/><path d="M620 265l82-47 82 47v94l-82 47-82-47z" fill="#151b4a" stroke="#6e6cff" stroke-width="9"/></g><g opacity=".75"><path d="M237 124l50-29 50 29v58l-50 29-50-29z" fill="#2deaff" opacity=".22"/><path d="M403 124l50-29 50 29v58l-50 29-50-29z" fill="#ff4bc5" opacity=".2"/><path d="M569 124l50-29 50 29v58l-50 29-50-29z" fill="#8065ff" opacity=".22"/></g><g filter="url(#s)"><rect x="118" y="346" width="72" height="205" rx="30" fill="url(#tower)" stroke="#4deaff" stroke-width="6"/><rect x="137" y="367" width="34" height="163" rx="17" fill="#0b1020"/><path d="M154 379v138" stroke="#31eaff" stroke-width="15" filter="url(#g)"/><path d="M154 420v97" stroke="#ff4bc6" stroke-width="8" filter="url(#g)"/><rect x="807" y="333" width="76" height="218" rx="31" fill="url(#tower)" stroke="#ff4bc6" stroke-width="6"/><rect x="827" y="355" width="36" height="173" rx="18" fill="#0b1020"/><path d="M845 370v142" stroke="#ff4bc6" stroke-width="15" filter="url(#g)"/><path d="M845 405v107" stroke="#3ceaff" stroke-width="8" filter="url(#g)"/></g><g filter="url(#s)"><rect x="290" y="449" width="420" height="75" rx="19" fill="#061221" stroke="#244d6b" stroke-width="4"/><path d="M330 474h340" stroke="#2deaff" stroke-width="6" stroke-linecap="round"/><path d="M366 500h266" stroke="#ff4bc4" stroke-width="5" stroke-linecap="round" filter="url(#g)"/></g><path d="M70 566c260-44 556-38 860-3" fill="none" stroke="#38eaff" stroke-opacity=".36" stroke-width="4"/><path d="M143 591c236-28 468-25 715-1" fill="none" stroke="#ff4cc4" stroke-opacity=".28" stroke-width="4"/><g stroke-linecap="round" filter="url(#g)"><path d="M93 73h175" stroke="#34eaff" stroke-width="9"/><path d="M748 69h158" stroke="#ff4bc6" stroke-width="9"/></g></svg>