<svg xmlns="http://www.w3.org/2000/svg" viewBox="0 0 96 96" role="img" aria-labelledby="t d"><title id="t">Társasági</title><desc id="d">Több játékost és ünnepi hangulatot jelölő Playroom ikon.</desc><defs><filter id="g"><feGaussianBlur stdDeviation="1.5" result="b"/><feMerge><feMergeNode in="b"/><feMergeNode in="SourceGraphic"/></feMerge></filter></defs><g fill="none" stroke-linecap="round" stroke-linejoin="round" filter="url(#g)"><circle cx="48" cy="28" r="9" stroke="#78E7FF" stroke-width="5"/><circle cx="25" cy="36" r="7" stroke="#B35CFF" stroke-width="4"/><circle cx="71" cy="36" r="7" stroke="#FF6B5E" stroke-width="4"/><path d="M29 67c3-14 10-21 19-21s16 7 19 21M10 70c2-12 7-18 15-18 6 0 11 4 14 12M86 70c-2-12-7-18-15-18-6 0-11 4-14 12" stroke="#5C7CFA" stroke-width="5"/><path d="m19 18 4 5m54-5-4 5M48 10v7M13 43H7m82 0h-6" stroke="#B8E34A" stroke-width="4"/><path d="m29 13 3 6-6 1m41-7-3 6 6 1" stroke="#FFF7E8" stroke-width="3.5"/></g></svg>