<svg xmlns="http://www.w3.org/2000/svg" viewBox="0 0 1600 1000" role="img" aria-hidden="true"><defs><linearGradient id="g16" x1="0" y1="0" x2="1" y2="1"><stop stop-color="#050607"/><stop offset=".52" stop-color="#111416"/><stop offset="1" stop-color="#080706"/></linearGradient><linearGradient id="m16" x1="0" y1="0" x2="1" y2="1"><stop stop-color="#111416"/><stop offset=".45" stop-color="#443321"/><stop offset=".72" stop-color="#17191a"/><stop offset="1" stop-color="#070808"/></linearGradient><linearGradient id="b16" x1="0" y1="0" x2="1" y2="1"><stop stop-color="#392417"/><stop offset=".55" stop-color="#a86d32"/><stop offset="1" stop-color="#2a1a11"/></linearGradient><radialGradient id="s16" cx=".68" cy=".28" r=".75"><stop stop-color="#d8a14c" stop-opacity=".34"/><stop offset=".35" stop-color="#8a552c" stop-opacity=".12"/><stop offset="1" stop-color="#000" stop-opacity="0"/></radialGradient><filter id="shadow" x="-30%" y="-30%" width="160%" height="160%"><feGaussianBlur in="SourceAlpha" stdDeviation="18" result="b"/><feOffset dy="18"/><feColorMatrix values="0 0 0 0 0 0 0 0 0 0 0 0 0 0 0 0 0 0 .7 0"/><feBlend in="SourceGraphic"/></filter><filter id="n16"><feTurbulence type="fractalNoise" baseFrequency=".75" numOctaves="2" seed="23" stitchTiles="stitch"/><feColorMatrix values="1 0 0 0 0 0 1 0 0 0 0 0 1 0 0 0 0 0 .07 0"/></filter></defs><rect width="1600" height="1000" fill="url(#g16)"/><rect width="1600" height="1000" fill="url(#s16)"/><path d="M0 880 C320 760 430 930 760 840 C1040 765 1260 830 1600 700 V1000 H0Z" fill="#090705" opacity=".72"/><g opacity=".45"><circle cx="458" cy="318" r="4" fill="#f0c77c" opacity="0.20"/><circle cx="1114" cy="762" r="3" fill="#f0c77c" opacity="0.51"/><circle cx="230" cy="266" r="2" fill="#f0c77c" opacity="0.42"/><circle cx="886" cy="710" r="1" fill="#f0c77c" opacity="0.33"/><circle cx="1542" cy="214" r="5" fill="#f0c77c" opacity="0.24"/><circle cx="658" cy="658" r="4" fill="#f0c77c" opacity="0.15"/><circle cx="1314" cy="162" r="3" fill="#f0c77c" opacity="0.46"/><circle cx="430" cy="606" r="2" fill="#f0c77c" opacity="0.37"/><circle cx="1086" cy="110" r="1" fill="#f0c77c" opacity="0.28"/><circle cx="202" cy="554" r="5" fill="#f0c77c" opacity="0.19"/><circle cx="858" cy="58" r="4" fill="#f0c77c" opacity="0.50"/><circle cx="1514" cy="502" r="3" fill="#f0c77c" opacity="0.41"/><circle cx="630" cy="946" r="2" fill="#f0c77c" opacity="0.32"/><circle cx="1286" cy="450" r="1" fill="#f0c77c" opacity="0.23"/><circle cx="402" cy="894" r="5" fill="#f0c77c" opacity="0.14"/><circle cx="1058" cy="398" r="4" fill="#f0c77c" opacity="0.45"/><circle cx="174" cy="842" r="3" fill="#f0c77c" opacity="0.36"/><circle cx="830" cy="346" r="2" fill="#f0c77c" opacity="0.27"/></g><g filter="url(#shadow)"><rect x="300" y="170" width="1000" height="660" rx="22" fill="#0b0d0e" stroke="#d8a14c" stroke-opacity=".55" stroke-width="6"/><path d="M340 360 H1260 M340 555 H1260 M520 190 V810 M790 190 V810 M1060 190 V810" stroke="#8a552c" stroke-opacity=".55" stroke-width="10"/><circle cx="593" cy="295" r="74" fill="url(#m16)" stroke="#f0c77c" stroke-opacity=".35" stroke-width="5"/><path d="M730 315 L800 220 L870 315 L835 420 L765 420Z" fill="url(#b16)" stroke="#d8a14c" stroke-width="5"/><path d="M960 260 h180 v120 h-180Z" fill="#17120d" stroke="#f0c77c" stroke-opacity=".35" stroke-width="5"/><path d="M430 610 C510 500 610 520 665 660 C720 535 850 525 930 680 C1000 560 1110 560 1190 690" fill="none" stroke="#d8a14c" stroke-width="18" stroke-linecap="round" opacity=".7"/></g><rect width="1600" height="1000" filter="url(#n16)" opacity=".28"/><rect x="18" y="18" width="1564" height="964" rx="28" fill="none" stroke="#d8a14c" stroke-opacity=".12" stroke-width="2"/><!-- original Loot Vault vector asset: blog-article-1 --></svg>