<svg xmlns="http://www.w3.org/2000/svg" viewBox="0 0 1600 1000" role="img" aria-hidden="true"><defs><linearGradient id="g3" x1="0" y1="0" x2="1" y2="1"><stop stop-color="#050607"/><stop offset=".52" stop-color="#111416"/><stop offset="1" stop-color="#080706"/></linearGradient><linearGradient id="m3" x1="0" y1="0" x2="1" y2="1"><stop stop-color="#111416"/><stop offset=".45" stop-color="#443321"/><stop offset=".72" stop-color="#17191a"/><stop offset="1" stop-color="#070808"/></linearGradient><linearGradient id="b3" x1="0" y1="0" x2="1" y2="1"><stop stop-color="#392417"/><stop offset=".55" stop-color="#a86d32"/><stop offset="1" stop-color="#2a1a11"/></linearGradient><radialGradient id="s3" cx=".68" cy=".28" r=".75"><stop stop-color="#d8a14c" stop-opacity=".34"/><stop offset=".35" stop-color="#8a552c" stop-opacity=".12"/><stop offset="1" stop-color="#000" stop-opacity="0"/></radialGradient><filter id="shadow" x="-30%" y="-30%" width="160%" height="160%"><feGaussianBlur in="SourceAlpha" stdDeviation="18" result="b"/><feOffset dy="18"/><feColorMatrix values="0 0 0 0 0 0 0 0 0 0 0 0 0 0 0 0 0 0 .7 0"/><feBlend in="SourceGraphic"/></filter><filter id="n3"><feTurbulence type="fractalNoise" baseFrequency=".75" numOctaves="2" seed="10" stitchTiles="stitch"/><feColorMatrix values="1 0 0 0 0 0 1 0 0 0 0 0 1 0 0 0 0 0 .07 0"/></filter></defs><rect width="1600" height="1000" fill="url(#g3)"/><rect width="1600" height="1000" fill="url(#s3)"/><path d="M0 880 C320 760 430 930 760 840 C1040 765 1260 830 1600 700 V1000 H0Z" fill="#090705" opacity=".72"/><g opacity=".45"><circle cx="912" cy="492" r="3" fill="#f0c77c" opacity="0.34"/><circle cx="1206" cy="558" r="2" fill="#f0c77c" opacity="0.25"/><circle cx="1500" cy="624" r="1" fill="#f0c77c" opacity="0.16"/><circle cx="254" cy="690" r="5" fill="#f0c77c" opacity="0.47"/><circle cx="548" cy="756" r="4" fill="#f0c77c" opacity="0.38"/><circle cx="842" cy="822" r="3" fill="#f0c77c" opacity="0.29"/><circle cx="1136" cy="888" r="2" fill="#f0c77c" opacity="0.20"/><circle cx="1430" cy="954" r="1" fill="#f0c77c" opacity="0.51"/><circle cx="184" cy="80" r="5" fill="#f0c77c" opacity="0.42"/><circle cx="478" cy="146" r="4" fill="#f0c77c" opacity="0.33"/><circle cx="772" cy="212" r="3" fill="#f0c77c" opacity="0.24"/><circle cx="1066" cy="278" r="2" fill="#f0c77c" opacity="0.15"/><circle cx="1360" cy="344" r="1" fill="#f0c77c" opacity="0.46"/><circle cx="114" cy="410" r="5" fill="#f0c77c" opacity="0.37"/><circle cx="408" cy="476" r="4" fill="#f0c77c" opacity="0.28"/><circle cx="702" cy="542" r="3" fill="#f0c77c" opacity="0.19"/><circle cx="996" cy="608" r="2" fill="#f0c77c" opacity="0.50"/><circle cx="1290" cy="674" r="1" fill="#f0c77c" opacity="0.41"/></g><g filter="url(#shadow)"><path d="M520 300 Q800 120 1080 300 L1010 700 Q800 890 590 700Z" fill="url(#m3)" stroke="#d8a14c" stroke-width="7"/><path d="M620 470 Q720 390 800 500 Q880 390 980 470 Q880 630 800 700 Q720 630 620 470Z" fill="#070808" stroke="#f0c77c" stroke-opacity=".55" stroke-width="6"/><path d="M720 300 L800 390 L880 300" fill="none" stroke="#f0c77c" stroke-width="9"/></g><rect width="1600" height="1000" filter="url(#n3)" opacity=".28"/><rect x="18" y="18" width="1564" height="964" rx="28" fill="none" stroke="#d8a14c" stroke-opacity=".12" stroke-width="2"/><!-- original Loot Vault vector asset: universe-anime --></svg>